<mxfile host="app.diagrams.net" agent="Mozilla/5.0 (Windows NT 10.0; Win64; x64) AppleWebKit/537.36 (KHTML, like Gecko) Chrome/131.0.0.0 Safari/537.36" version="24.8.4">
  <diagram name="Page-1" id="X0RN0myy-EemfgmL7lA0">
    <mxGraphModel dx="2087" dy="1327" grid="0" gridSize="10" guides="1" tooltips="1" connect="1" arrows="1" fold="1" page="0" pageScale="1" pageWidth="850" pageHeight="1100" math="0" shadow="0">
      <root>
        <mxCell id="0" />
        <mxCell id="1" parent="0" />
        <mxCell id="EwhCRZc-Zur_tVQNMzna-1" value="" style="rounded=0;whiteSpace=wrap;html=1;" vertex="1" parent="1">
          <mxGeometry x="-26" y="-68" width="387" height="658" as="geometry" />
        </mxCell>
        <mxCell id="EwhCRZc-Zur_tVQNMzna-2" value="ChargeHub Berlin System" style="text;strokeColor=none;fillColor=none;html=1;align=center;verticalAlign=middle;whiteSpace=wrap;rounded=0;fontSize=16;" vertex="1" parent="1">
          <mxGeometry x="58.25" y="-111" width="207.5" height="30" as="geometry" />
        </mxCell>
        <mxCell id="EwhCRZc-Zur_tVQNMzna-3" value="Admin" style="shape=umlActor;verticalLabelPosition=bottom;verticalAlign=top;html=1;outlineConnect=0;" vertex="1" parent="1">
          <mxGeometry x="462" y="79" width="30" height="60" as="geometry" />
        </mxCell>
        <mxCell id="EwhCRZc-Zur_tVQNMzna-4" value="Resident (User)" style="shape=umlActor;verticalLabelPosition=bottom;verticalAlign=top;html=1;outlineConnect=0;" vertex="1" parent="1">
          <mxGeometry x="-155" y="79" width="30" height="60" as="geometry" />
        </mxCell>
        <mxCell id="EwhCRZc-Zur_tVQNMzna-5" value="" style="ellipse;whiteSpace=wrap;html=1;" vertex="1" parent="1">
          <mxGeometry x="65.75" y="-42" width="192.5" height="80" as="geometry" />
        </mxCell>
        <mxCell id="EwhCRZc-Zur_tVQNMzna-6" value="Locate Stations" style="text;html=1;align=center;verticalAlign=middle;whiteSpace=wrap;rounded=0;fontSize=16;" vertex="1" parent="1">
          <mxGeometry x="76" y="-17" width="169" height="30" as="geometry" />
        </mxCell>
        <mxCell id="EwhCRZc-Zur_tVQNMzna-7" value="" style="shape=cylinder3;whiteSpace=wrap;html=1;boundedLbl=1;backgroundOutline=1;size=15;" vertex="1" parent="1">
          <mxGeometry x="447" y="293" width="60" height="80" as="geometry" />
        </mxCell>
        <mxCell id="EwhCRZc-Zur_tVQNMzna-8" value="External Data Sources" style="text;html=1;align=center;verticalAlign=middle;whiteSpace=wrap;rounded=0;fontSize=16;" vertex="1" parent="1">
          <mxGeometry x="394" y="380" width="172" height="30" as="geometry" />
        </mxCell>
        <mxCell id="EwhCRZc-Zur_tVQNMzna-10" value="" style="ellipse;whiteSpace=wrap;html=1;fillColor=#dae8fc;strokeColor=#6c8ebf;" vertex="1" parent="1">
          <mxGeometry x="65.75" y="55" width="192.5" height="80" as="geometry" />
        </mxCell>
        <mxCell id="EwhCRZc-Zur_tVQNMzna-13" value="" style="ellipse;whiteSpace=wrap;html=1;fillColor=#d5e8d4;strokeColor=#82b366;" vertex="1" parent="1">
          <mxGeometry x="64.25" y="153" width="192.5" height="80" as="geometry" />
        </mxCell>
        <mxCell id="EwhCRZc-Zur_tVQNMzna-14" value="" style="ellipse;whiteSpace=wrap;html=1;fillColor=#d5e8d4;strokeColor=#82b366;" vertex="1" parent="1">
          <mxGeometry x="64.25" y="249" width="192.5" height="80" as="geometry" />
        </mxCell>
        <mxCell id="EwhCRZc-Zur_tVQNMzna-15" value="View Station Demand Analysis" style="text;html=1;align=center;verticalAlign=middle;whiteSpace=wrap;rounded=0;fontSize=16;" vertex="1" parent="1">
          <mxGeometry x="89.5" y="79" width="142" height="30" as="geometry" />
        </mxCell>
        <mxCell id="EwhCRZc-Zur_tVQNMzna-17" value="Submit Suggestion for Charging Station" style="text;html=1;align=center;verticalAlign=middle;whiteSpace=wrap;rounded=0;fontSize=16;" vertex="1" parent="1">
          <mxGeometry x="80" y="176" width="161" height="30" as="geometry" />
        </mxCell>
        <mxCell id="EwhCRZc-Zur_tVQNMzna-18" value="Manage &amp;amp; Review Suggestions" style="text;html=1;align=center;verticalAlign=middle;whiteSpace=wrap;rounded=0;fontSize=16;" vertex="1" parent="1">
          <mxGeometry x="83.5" y="271" width="154" height="30" as="geometry" />
        </mxCell>
        <mxCell id="EwhCRZc-Zur_tVQNMzna-20" value="" style="ellipse;whiteSpace=wrap;html=1;fillColor=#dae8fc;strokeColor=#6c8ebf;" vertex="1" parent="1">
          <mxGeometry x="64.25" y="348" width="192.5" height="80" as="geometry" />
        </mxCell>
        <mxCell id="EwhCRZc-Zur_tVQNMzna-21" value="Update Demand Analysis" style="text;html=1;align=center;verticalAlign=middle;whiteSpace=wrap;rounded=0;fontSize=16;" vertex="1" parent="1">
          <mxGeometry x="86.5" y="373" width="148" height="30" as="geometry" />
        </mxCell>
        <mxCell id="EwhCRZc-Zur_tVQNMzna-23" value="" style="ellipse;whiteSpace=wrap;html=1;" vertex="1" parent="1">
          <mxGeometry x="65.75" y="447" width="192.5" height="80" as="geometry" />
        </mxCell>
        <mxCell id="EwhCRZc-Zur_tVQNMzna-24" value="Add New Stations" style="text;html=1;align=center;verticalAlign=middle;whiteSpace=wrap;rounded=0;fontSize=16;" vertex="1" parent="1">
          <mxGeometry x="86" y="472" width="152" height="30" as="geometry" />
        </mxCell>
        <mxCell id="EwhCRZc-Zur_tVQNMzna-25" value="" style="endArrow=none;html=1;rounded=0;fontSize=12;startSize=8;endSize=8;curved=1;exitX=0.5;exitY=0.5;exitDx=0;exitDy=0;exitPerimeter=0;entryX=0;entryY=0.5;entryDx=0;entryDy=0;" edge="1" parent="1" source="EwhCRZc-Zur_tVQNMzna-4" target="EwhCRZc-Zur_tVQNMzna-5">
          <mxGeometry width="50" height="50" relative="1" as="geometry">
            <mxPoint x="125" y="219" as="sourcePoint" />
            <mxPoint x="175" y="169" as="targetPoint" />
          </mxGeometry>
        </mxCell>
        <mxCell id="EwhCRZc-Zur_tVQNMzna-26" value="" style="endArrow=none;html=1;rounded=0;fontSize=12;startSize=8;endSize=8;curved=1;exitX=0.5;exitY=0.5;exitDx=0;exitDy=0;exitPerimeter=0;entryX=0;entryY=0.5;entryDx=0;entryDy=0;" edge="1" parent="1" source="EwhCRZc-Zur_tVQNMzna-4" target="EwhCRZc-Zur_tVQNMzna-10">
          <mxGeometry width="50" height="50" relative="1" as="geometry">
            <mxPoint x="125" y="219" as="sourcePoint" />
            <mxPoint x="175" y="169" as="targetPoint" />
          </mxGeometry>
        </mxCell>
        <mxCell id="EwhCRZc-Zur_tVQNMzna-28" value="" style="endArrow=none;html=1;rounded=0;fontSize=12;startSize=8;endSize=8;curved=1;exitX=0.5;exitY=0.5;exitDx=0;exitDy=0;exitPerimeter=0;entryX=0;entryY=0.5;entryDx=0;entryDy=0;" edge="1" parent="1" source="EwhCRZc-Zur_tVQNMzna-4" target="EwhCRZc-Zur_tVQNMzna-13">
          <mxGeometry width="50" height="50" relative="1" as="geometry">
            <mxPoint x="125" y="219" as="sourcePoint" />
            <mxPoint x="175" y="169" as="targetPoint" />
          </mxGeometry>
        </mxCell>
        <mxCell id="EwhCRZc-Zur_tVQNMzna-29" value="" style="endArrow=none;html=1;rounded=0;fontSize=12;startSize=8;endSize=8;curved=1;exitX=0.5;exitY=0.5;exitDx=0;exitDy=0;exitPerimeter=0;entryX=1;entryY=0.5;entryDx=0;entryDy=0;" edge="1" parent="1" source="EwhCRZc-Zur_tVQNMzna-3" target="EwhCRZc-Zur_tVQNMzna-14">
          <mxGeometry width="50" height="50" relative="1" as="geometry">
            <mxPoint x="125" y="219" as="sourcePoint" />
            <mxPoint x="175" y="169" as="targetPoint" />
          </mxGeometry>
        </mxCell>
        <mxCell id="EwhCRZc-Zur_tVQNMzna-33" value="" style="endArrow=none;dashed=1;html=1;rounded=0;fontSize=12;startSize=8;endSize=8;curved=1;entryX=0.5;entryY=0.5;entryDx=0;entryDy=0;entryPerimeter=0;exitX=1;exitY=0.5;exitDx=0;exitDy=0;" edge="1" parent="1" source="EwhCRZc-Zur_tVQNMzna-23" target="EwhCRZc-Zur_tVQNMzna-3">
          <mxGeometry width="50" height="50" relative="1" as="geometry">
            <mxPoint x="125" y="219" as="sourcePoint" />
            <mxPoint x="175" y="169" as="targetPoint" />
          </mxGeometry>
        </mxCell>
        <mxCell id="EwhCRZc-Zur_tVQNMzna-34" value="" style="endArrow=none;dashed=1;html=1;rounded=0;fontSize=12;startSize=8;endSize=8;curved=1;entryX=0;entryY=0.5;entryDx=0;entryDy=0;entryPerimeter=0;exitX=1;exitY=0.5;exitDx=0;exitDy=0;" edge="1" parent="1" source="EwhCRZc-Zur_tVQNMzna-23" target="EwhCRZc-Zur_tVQNMzna-7">
          <mxGeometry width="50" height="50" relative="1" as="geometry">
            <mxPoint x="125" y="219" as="sourcePoint" />
            <mxPoint x="175" y="169" as="targetPoint" />
          </mxGeometry>
        </mxCell>
        <mxCell id="EwhCRZc-Zur_tVQNMzna-35" value="" style="endArrow=none;dashed=1;html=1;rounded=0;fontSize=12;startSize=8;endSize=8;curved=1;exitX=0;exitY=0.5;exitDx=0;exitDy=0;exitPerimeter=0;entryX=0.991;entryY=0.4;entryDx=0;entryDy=0;entryPerimeter=0;" edge="1" parent="1" source="EwhCRZc-Zur_tVQNMzna-7" target="EwhCRZc-Zur_tVQNMzna-20">
          <mxGeometry width="50" height="50" relative="1" as="geometry">
            <mxPoint x="125" y="319" as="sourcePoint" />
            <mxPoint x="175" y="269" as="targetPoint" />
          </mxGeometry>
        </mxCell>
        <mxCell id="EwhCRZc-Zur_tVQNMzna-36" value="" style="endArrow=none;dashed=1;html=1;rounded=0;fontSize=12;startSize=8;endSize=8;curved=1;entryX=0.5;entryY=0.5;entryDx=0;entryDy=0;entryPerimeter=0;exitX=1;exitY=0.5;exitDx=0;exitDy=0;" edge="1" parent="1" source="EwhCRZc-Zur_tVQNMzna-20" target="EwhCRZc-Zur_tVQNMzna-3">
          <mxGeometry width="50" height="50" relative="1" as="geometry">
            <mxPoint x="125" y="319" as="sourcePoint" />
            <mxPoint x="175" y="269" as="targetPoint" />
          </mxGeometry>
        </mxCell>
        <mxCell id="EwhCRZc-Zur_tVQNMzna-37" value="Use Case Legend" style="swimlane;fontStyle=0;childLayout=stackLayout;horizontal=1;startSize=30;horizontalStack=0;resizeParent=1;resizeParentMax=0;resizeLast=0;collapsible=1;marginBottom=0;whiteSpace=wrap;html=1;" vertex="1" parent="1">
          <mxGeometry x="-197" y="470" width="140" height="120" as="geometry" />
        </mxCell>
        <mxCell id="EwhCRZc-Zur_tVQNMzna-38" value="&lt;font color=&quot;#00ff00&quot;&gt;Suggestions&lt;/font&gt; (Green)" style="text;strokeColor=none;fillColor=none;align=left;verticalAlign=middle;spacingLeft=4;spacingRight=4;overflow=hidden;points=[[0,0.5],[1,0.5]];portConstraint=eastwest;rotatable=0;whiteSpace=wrap;html=1;" vertex="1" parent="EwhCRZc-Zur_tVQNMzna-37">
          <mxGeometry y="30" width="140" height="30" as="geometry" />
        </mxCell>
        <mxCell id="EwhCRZc-Zur_tVQNMzna-39" value="&lt;font color=&quot;#007fff&quot;&gt;Demand Analysis&lt;/font&gt; (Blue)" style="text;strokeColor=none;fillColor=none;align=left;verticalAlign=middle;spacingLeft=4;spacingRight=4;overflow=hidden;points=[[0,0.5],[1,0.5]];portConstraint=eastwest;rotatable=0;whiteSpace=wrap;html=1;" vertex="1" parent="EwhCRZc-Zur_tVQNMzna-37">
          <mxGeometry y="60" width="140" height="30" as="geometry" />
        </mxCell>
        <mxCell id="EwhCRZc-Zur_tVQNMzna-40" value="Remaining (Black)" style="text;strokeColor=none;fillColor=none;align=left;verticalAlign=middle;spacingLeft=4;spacingRight=4;overflow=hidden;points=[[0,0.5],[1,0.5]];portConstraint=eastwest;rotatable=0;whiteSpace=wrap;html=1;" vertex="1" parent="EwhCRZc-Zur_tVQNMzna-37">
          <mxGeometry y="90" width="140" height="30" as="geometry" />
        </mxCell>
        <mxCell id="EwhCRZc-Zur_tVQNMzna-42" value="Relationship Legend" style="swimlane;fontStyle=0;childLayout=stackLayout;horizontal=1;startSize=30;horizontalStack=0;resizeParent=1;resizeParentMax=0;resizeLast=0;collapsible=1;marginBottom=0;whiteSpace=wrap;html=1;" vertex="1" parent="1">
          <mxGeometry x="394" y="500" width="140" height="90" as="geometry" />
        </mxCell>
        <mxCell id="EwhCRZc-Zur_tVQNMzna-47" value="" style="endArrow=none;html=1;rounded=0;fontSize=12;startSize=8;endSize=8;curved=1;" edge="1" parent="EwhCRZc-Zur_tVQNMzna-42">
          <mxGeometry width="50" height="50" relative="1" as="geometry">
            <mxPoint x="49" y="44.710000000000036" as="sourcePoint" />
            <mxPoint x="76" y="44.710000000000036" as="targetPoint" />
          </mxGeometry>
        </mxCell>
        <mxCell id="EwhCRZc-Zur_tVQNMzna-43" value="Full" style="text;strokeColor=none;fillColor=none;align=left;verticalAlign=middle;spacingLeft=4;spacingRight=4;overflow=hidden;points=[[0,0.5],[1,0.5]];portConstraint=eastwest;rotatable=0;whiteSpace=wrap;html=1;" vertex="1" parent="EwhCRZc-Zur_tVQNMzna-42">
          <mxGeometry y="30" width="140" height="30" as="geometry" />
        </mxCell>
        <mxCell id="EwhCRZc-Zur_tVQNMzna-44" value="Partial" style="text;strokeColor=none;fillColor=none;align=left;verticalAlign=middle;spacingLeft=4;spacingRight=4;overflow=hidden;points=[[0,0.5],[1,0.5]];portConstraint=eastwest;rotatable=0;whiteSpace=wrap;html=1;" vertex="1" parent="EwhCRZc-Zur_tVQNMzna-42">
          <mxGeometry y="60" width="140" height="30" as="geometry" />
        </mxCell>
        <mxCell id="EwhCRZc-Zur_tVQNMzna-46" value="" style="endArrow=none;dashed=1;html=1;rounded=0;fontSize=12;startSize=8;endSize=8;curved=1;" edge="1" parent="EwhCRZc-Zur_tVQNMzna-42">
          <mxGeometry width="50" height="50" relative="1" as="geometry">
            <mxPoint x="50" y="74.71000000000004" as="sourcePoint" />
            <mxPoint x="75" y="74.71000000000004" as="targetPoint" />
          </mxGeometry>
        </mxCell>
        <mxCell id="EwhCRZc-Zur_tVQNMzna-48" value="Group 10&amp;nbsp;" style="text;html=1;align=center;verticalAlign=middle;whiteSpace=wrap;rounded=0;fontSize=16;" vertex="1" parent="1">
          <mxGeometry x="-155" y="-105" width="60" height="30" as="geometry" />
        </mxCell>
      </root>
    </mxGraphModel>
  </diagram>
</mxfile>
